<?xml version="1.0" encoding="UTF-8"?>
<svg id="a" data-name="Layer 1" xmlns="http://www.w3.org/2000/svg" xmlns:xlink="http://www.w3.org/1999/xlink" viewBox="0 0 341.71 250">
  <defs>
    <style>
      .c {
        fill: url(#b);
      }
    </style>
    <linearGradient id="b" x1="44.06" y1="1073.94" x2="282.5" y2="748.78" gradientTransform="translate(0 1041.92) scale(1 -1)" gradientUnits="userSpaceOnUse">
      <stop offset="0" stop-color="#209bc4"/>
      <stop offset="1" stop-color="#4dc9c0"/>
    </linearGradient>
  </defs>
  <path class="c" d="M322.77,15.82c-20.6-20.59-53.83-21.15-75.11-1.26-1.02.94-1.61,2.27-1.61,3.66-.03,1.4.51,2.74,1.5,3.74l6.81,6.8c1.82,1.81,4.68,2.01,6.73.47,5.34-4.02,11.85-6.19,18.54-6.17,17.11,0,30.98,13.85,30.98,30.94,0,8.2-3.26,16.06-9.05,21.86-42.79,42.98-100.23-77.1-230.18-15.33-8.83,4.1-12.67,14.57-8.57,23.4.21.45.44.9.69,1.34l22.28,38.49c4.84,8.33,15.47,11.26,23.9,6.57l.55-.31-.43.31,9.88-5.54c11.02-6.82,21.44-14.57,31.14-23.16,1.97-1.84,5-1.94,7.09-.24,2.17,1.77,2.5,4.96.73,7.14-.22.27-.46.51-.73.73-10.12,9.1-21.01,17.31-32.56,24.53l-.35.2-9.88,5.5c-4.17,2.36-8.87,3.59-13.66,3.58-10.1.02-19.44-5.32-24.53-14.04l-21.1-36.33C15.35,121.23-9.21,176.24,3.97,245.83c.47,2.43,2.6,4.18,5.08,4.17h23.97c2.66.1,4.95-1.85,5.28-4.48,2.51-19.25,20.17-32.82,39.45-30.31,15.83,2.06,28.29,14.5,30.35,30.31.31,2.53,2.45,4.44,5,4.48h23.38c2.59,0,4.78-1.92,5.12-4.48,2.43-19.24,20.01-32.87,39.27-30.45,15.93,2,28.48,14.54,30.49,30.45.32,2.56,2.5,4.48,5.08,4.48h23.11c2.79,0,5.07-2.24,5.12-5.03.55-32.56,9.33-69.95,34.41-88.66,86.57-64.8,63.78-120.35,43.7-140.49ZM234.32,113.84v-.04l-16.54-8.3c-.02-5.73,4.61-10.4,10.35-10.42,5.74-.02,10.41,4.61,10.43,10.34.01,3.32-1.57,6.45-4.25,8.41Z"/>
</svg>